<?xml version="1.0" encoding="utf-8"?>
<!-- Generator: Adobe Illustrator 23.0.3, SVG Export Plug-In . SVG Version: 6.00 Build 0)  -->
<svg version="1.1" id="Calque_1" xmlns="http://www.w3.org/2000/svg" xmlns:xlink="http://www.w3.org/1999/xlink" x="0px" y="0px"
	 viewBox="0 0 4191 926" style="enable-background:new 0 0 4191 926;" xml:space="preserve">
<style type="text/css">
	.st0{filter:url(#Adobe_OpacityMaskFilter);}
	.st1{mask:url(#SVGID_1_);}
	.st2{opacity:0.5;clip-path:url(#SVGID_5_);fill:#231F20;}
	.st3{clip-path:url(#SVGID_7_);fill:url(#SVGID_8_);}
	.st4{filter:url(#Adobe_OpacityMaskFilter_1_);}
	.st5{mask:url(#SVGID_9_);}
	.st6{opacity:0.5;clip-path:url(#SVGID_13_);fill:#231F20;}
	.st7{clip-path:url(#SVGID_15_);fill:url(#SVGID_16_);}
	.st8{filter:url(#Adobe_OpacityMaskFilter_2_);}
	.st9{mask:url(#SVGID_17_);}
	.st10{opacity:0.5;clip-path:url(#SVGID_21_);fill:#231F20;}
	.st11{clip-path:url(#SVGID_23_);fill:url(#SVGID_24_);}
	.st12{fill:none;stroke:#FFFFFF;stroke-width:16;}
	.st13{display:none;fill:#EB8023;}
	.st14{fill:#FFFFFF;}
	.st15{display:none;clip-path:url(#SVGID_26_);fill:url(#SVGID_27_);}
	.st16{fill:#303030;stroke:#FFFFFF;stroke-width:14;stroke-miterlimit:10;}
	.st17{fill:url(#rect3761-0_1_);stroke:#D3D3D3;stroke-width:0.2405;}
	.st18{fill:url(#rect2830-2_1_);}
	.st19{fill:#EE7F01;}
	.st20{fill:#373737;}
	.st21{fill:url(#rect3612-5_1_);}
	.st22{fill:#424345;}
	.st23{fill:url(#path3605-6_1_);}
</style>
<g>
	<g>
		<defs>
			<filter id="Adobe_OpacityMaskFilter" filterUnits="userSpaceOnUse" x="2451.2" y="67.5" width="318.5" height="743.3">
				<feColorMatrix  type="matrix" values="1 0 0 0 0  0 1 0 0 0  0 0 1 0 0  0 0 0 1 0"/>
			</filter>
		</defs>
		<mask maskUnits="userSpaceOnUse" x="2451.2" y="67.5" width="318.5" height="743.3" id="SVGID_1_">
			<g class="st0">
				<g>
					<defs>
						<rect id="SVGID_2_" x="2299.6" y="-53.8" width="637.1" height="910.1"/>
					</defs>
					<clipPath id="SVGID_3_">
						<use xlink:href="#SVGID_2_"  style="overflow:visible;"/>
					</clipPath>
					<g style="clip-path:url(#SVGID_3_);">
						
							<image style="overflow:visible;" width="84" height="120" xlink:href="27D9AE0F.jpg"  transform="matrix(7.5844 0 0 7.5844 2299.5591 -53.8151)">
						</image>
					</g>
				</g>
			</g>
		</mask>
		<g class="st1">
			<g>
				<defs>
					<rect id="SVGID_4_" x="2451.2" y="67.5" width="318.5" height="743.3"/>
				</defs>
				<clipPath id="SVGID_5_">
					<use xlink:href="#SVGID_4_"  style="overflow:visible;"/>
				</clipPath>
				<rect x="2451.2" y="67.5" class="st2" width="318.5" height="743.3"/>
			</g>
		</g>
	</g>
	<g>
		<defs>
			<path id="SVGID_6_" d="M2548.1,284.3L2462.3,768h155.6l85.8-483.7H2548.1z M2598.2,102.8c-18.2,17.9-27.3,39.7-27.3,65.4
				c0,17.5,5.9,32.1,17.6,43.8c11.7,11.8,27.1,17.6,46,17.6c12.1,0,23.6-2.4,34.6-7.4c11-4.9,20.8-11.7,29.5-20.5
				c8.7-8.7,15.5-18.4,20.5-29c4.9-10.6,7.4-21.6,7.4-33c0-18.2-6.1-33.4-18.2-45.5c-12.1-12.1-27.6-18.2-46.6-18.2
				C2637.6,76.1,2616.4,85,2598.2,102.8"/>
		</defs>
		<clipPath id="SVGID_7_">
			<use xlink:href="#SVGID_6_"  style="overflow:visible;"/>
		</clipPath>
		
			<linearGradient id="SVGID_8_" gradientUnits="userSpaceOnUse" x1="4355.6563" y1="890.0118" x2="4371.457" y2="890.0118" gradientTransform="matrix(0 27.9694 27.9694 0 -22298.6504 -121592.5391)">
			<stop  offset="0" style="stop-color:#F7B93E"/>
			<stop  offset="1" style="stop-color:#EB8023"/>
		</linearGradient>
		<rect x="2462.3" y="76.1" class="st3" width="264.3" height="692"/>
	</g>
	<g>
		<defs>
			<filter id="Adobe_OpacityMaskFilter_1_" filterUnits="userSpaceOnUse" x="2650.1" y="0.4" width="553.7" height="925.3">
				<feColorMatrix  type="matrix" values="1 0 0 0 0  0 1 0 0 0  0 0 1 0 0  0 0 0 1 0"/>
			</filter>
		</defs>
		<mask maskUnits="userSpaceOnUse" x="2650.1" y="0.4" width="553.7" height="925.3" id="SVGID_9_">
			<g class="st4">
				<g>
					<defs>
						<rect id="SVGID_10_" x="2498.5" y="-120.9" width="879.8" height="1092.2"/>
					</defs>
					<clipPath id="SVGID_11_">
						<use xlink:href="#SVGID_10_"  style="overflow:visible;"/>
					</clipPath>
					<g style="clip-path:url(#SVGID_11_);">
						
							<image style="overflow:visible;" width="116" height="144" xlink:href="27D9AE0D.jpg"  transform="matrix(7.5844 0 0 7.5844 2498.4634 -120.9305)">
						</image>
					</g>
				</g>
			</g>
		</mask>
		<g class="st5">
			<g>
				<defs>
					<rect id="SVGID_12_" x="2650.2" y="0.4" width="553.7" height="925.3"/>
				</defs>
				<clipPath id="SVGID_13_">
					<use xlink:href="#SVGID_12_"  style="overflow:visible;"/>
				</clipPath>
				<rect x="2650.1" y="0.4" class="st6" width="553.7" height="925.3"/>
			</g>
		</g>
	</g>
	<g>
		<defs>
			<path id="SVGID_14_" d="M2898.7,57.9c-36.1,32.6-59.9,78.9-71.3,138.8l-17.1,89.8h-57l-13.7,85.3h55.9l-66.1,379.9
				c-4.6,28.8-21.3,43.2-50.2,43.2h-3.4l-14.8,81.9c23.6,5.3,46.8,8,69.6,8c85.9,0,136.9-43.6,152.8-130.8l68.4-382.2h115.2
				l14.8-85.3h-116.3l16-89.8c3.8-22,12.2-38.9,25.1-50.6c12.9-11.8,28.5-17.6,46.8-17.6c6.1,0,12.9,0.9,20.5,2.8
				c7.6,1.9,16,4.8,25.1,8.5l65-77.4c-34.2-35.6-77.2-53.5-128.9-53.5C2980.2,8.9,2934.8,25.3,2898.7,57.9"/>
		</defs>
		<clipPath id="SVGID_15_">
			<use xlink:href="#SVGID_14_"  style="overflow:visible;"/>
		</clipPath>
		
			<linearGradient id="SVGID_16_" gradientUnits="userSpaceOnUse" x1="4355.7261" y1="901.5295" x2="4371.5269" y2="901.5295" gradientTransform="matrix(0 28.0614 28.0614 0 -22385.8281 -121995.7813)">
			<stop  offset="0" style="stop-color:#F7B93E"/>
			<stop  offset="1" style="stop-color:#EB8023"/>
		</linearGradient>
		<rect x="2660.9" y="8.9" class="st7" width="502.9" height="875.8"/>
	</g>
	<g>
		<defs>
			<filter id="Adobe_OpacityMaskFilter_2_" filterUnits="userSpaceOnUse" x="3035" y="266.3" width="523.3" height="561.2">
				<feColorMatrix  type="matrix" values="1 0 0 0 0  0 1 0 0 0  0 0 1 0 0  0 0 0 1 0"/>
			</filter>
		</defs>
		<mask maskUnits="userSpaceOnUse" x="3035" y="266.3" width="523.3" height="561.2" id="SVGID_17_">
			<g class="st8">
				<g>
					<defs>
						<rect id="SVGID_18_" x="2883.3" y="145" width="849.5" height="728.1"/>
					</defs>
					<clipPath id="SVGID_19_">
						<use xlink:href="#SVGID_18_"  style="overflow:visible;"/>
					</clipPath>
					<g style="clip-path:url(#SVGID_19_);">
						
							<image style="overflow:visible;" width="112" height="96" xlink:href="27D9AE13.jpg"  transform="matrix(7.5844 0 0 7.5844 2883.3442 144.9617)">
						</image>
					</g>
				</g>
			</g>
		</mask>
		<g class="st9">
			<g>
				<defs>
					<rect id="SVGID_20_" x="3035" y="266.3" width="523.3" height="561.2"/>
				</defs>
				<clipPath id="SVGID_21_">
					<use xlink:href="#SVGID_20_"  style="overflow:visible;"/>
				</clipPath>
				<rect x="3035" y="266.3" class="st10" width="523.3" height="561.2"/>
			</g>
		</g>
	</g>
	<g>
		<defs>
			<path id="SVGID_22_" d="M3224.9,651.4c-9.9-9.5-14.8-21.8-14.8-37c0-19.7,7.6-35.1,22.8-46.1c15.2-11,36.8-16.5,65-16.5
				c14.4,0,30.4,2.3,47.9,6.8c-7.6,71.4-35.7,107.1-84.3,107.1C3246.9,665.6,3234.7,660.9,3224.9,651.4 M3195.8,291.4
				c-37.6,11-70.1,26.4-97.4,46.2l58.1,95.7c44.8-23.5,90.4-35.3,136.7-35.3c24.3,0,42.6,3.6,54.7,10.8
				c12.2,7.2,18.2,17.3,18.2,30.2v6.8l-5.7,34.2c-17.5-3-33.6-5.1-48.4-6.3c-14.8-1.1-28.3-1.7-40.5-1.7
				c-72.9,0-129,14.4-168.1,43.3c-39.1,28.9-58.7,68.4-58.7,118.5c0,22,3.8,42.6,11.4,61.5c7.6,19,18.2,35.3,31.9,49
				c13.7,13.7,29.8,24.5,48.4,32.5c18.6,8,38.9,12,61,12c57.7,0,101-25.8,129.9-77.5h2.3c13.7,47.1,48.2,70.6,103.7,70.6
				c8.3,0,17.1-0.4,26.2-1.2c9.1-0.8,19-2.3,29.6-4.6l14.8-83.2h-3.4c-6.8,0-11.4-1.9-13.7-5.7c-3.8-3.8-5.7-9.1-5.7-15.9v-5.1
				c0-1.9,0.4-3.6,1.1-5.1l30.8-168.6c4.6-22.8,6.8-43.7,6.8-62.7c0-103.3-67.2-154.9-201.7-154.9
				C3274.3,274.8,3233.4,280.4,3195.8,291.4"/>
		</defs>
		<clipPath id="SVGID_23_">
			<use xlink:href="#SVGID_22_"  style="overflow:visible;"/>
		</clipPath>
		
			<linearGradient id="SVGID_24_" gradientUnits="userSpaceOnUse" x1="4355.6421" y1="914.3533" x2="4371.4429" y2="914.3533" gradientTransform="matrix(0 27.8244 27.8244 0 -22158.9277 -120957.5234)">
			<stop  offset="0" style="stop-color:#F7B93E"/>
			<stop  offset="1" style="stop-color:#EB8023"/>
		</linearGradient>
		<rect x="3044.8" y="274.8" class="st11" width="475.2" height="513.8"/>
	</g>
	<path class="st12" d="M2703.7,284.3h-155.6L2462.2,768h155.6L2703.7,284.3z M2719.2,172.8c4.9-10.6,7.4-21.6,7.4-33
		c0-18.2-6.1-33.4-18.2-45.5c-12.1-12.1-27.6-18.2-46.5-18.2c-24.3,0-45.5,8.9-63.6,26.7c-18.2,17.8-27.3,39.7-27.3,65.4
		c0,17.5,5.9,32.1,17.6,43.8c11.7,11.8,27.1,17.6,46,17.6c12.1,0,23.7-2.4,34.6-7.4c11-4.9,20.8-11.8,29.5-20.5
		C2707.5,193.1,2714.3,183.4,2719.2,172.8z"/>
	<path class="st12" d="M3163.8,62.4C3129.6,26.8,3086.7,9,3035,9c-54.7,0-100.2,16.3-136.3,48.9c-36.1,32.6-59.9,78.9-71.3,138.8
		l-17.1,89.8h-57l-13.7,85.3h55.9l-66.1,379.9c-4.6,28.8-21.3,43.2-50.2,43.2h-3.4l-14.8,81.9c23.6,5.3,46.8,8,69.6,8
		c85.9,0,136.9-43.6,152.8-130.8l68.4-382.2h115.2l14.8-85.3h-116.3l16-89.8c3.8-22,12.2-38.9,25.1-50.6
		c12.9-11.8,28.5-17.6,46.8-17.6c6.1,0,12.9,1,20.5,2.8c7.6,1.9,16,4.7,25.1,8.5L3163.8,62.4z"/>
	<path class="st12" d="M3345.7,558.5c-7.6,71.4-35.7,107.1-84.3,107.1c-14.4,0-26.6-4.7-36.5-14.2c-9.9-9.5-14.8-21.8-14.8-37
		c0-19.7,7.6-35.1,22.8-46.1c15.2-11,36.8-16.5,65-16.5C3312.2,551.7,3328.2,554,3345.7,558.5z M3520,429.8
		c0-103.3-67.2-154.9-201.7-154.9c-44.1,0-84.9,5.5-122.5,16.5c-37.6,11-70.1,26.4-97.4,46.1l58.1,95.7
		c44.8-23.5,90.4-35.3,136.8-35.3c24.3,0,42.5,3.6,54.7,10.8c12.1,7.2,18.2,17.3,18.2,30.2v6.8l-5.7,34.2c-17.5-3-33.6-5.1-48.4-6.3
		c-14.8-1.1-28.3-1.7-40.5-1.7c-72.9,0-129,14.4-168.1,43.3c-39.1,28.9-58.7,68.4-58.7,118.5c0,22,3.8,42.5,11.4,61.5
		c7.6,19,18.2,35.3,31.9,49c13.7,13.7,29.8,24.5,48.4,32.5c18.6,8,38.9,12,61,12c57.7,0,101-25.8,129.9-77.5h2.3
		c13.7,47.1,48.2,70.6,103.7,70.6c8.3,0,17.1-0.4,26.2-1.1c9.1-0.8,19-2.3,29.6-4.6l14.8-83.2h-3.4c-6.8,0-11.4-1.9-13.7-5.7
		c-3.8-3.8-5.7-9.1-5.7-15.9v-5.1c0-1.9,0.4-3.6,1.1-5.1l30.8-168.6C3517.8,469.6,3520,448.8,3520,429.8z"/>
	<path class="st13" d="M2476.7,330.2c-8.7-1.5-11.9-8.9-10.9-14.8c1.1-6.6,7.2-11.7,15.1-10.4c7.1,1.2,11.9,7.6,10.7,14.9
		C2490.4,326.8,2484.1,331.4,2476.7,330.2L2476.7,330.2z M2437.9,310.8l21.5,20.7c3.7,3.5,8.3,7,14.9,8.1c4.5,0.8,10.5,0.3,15.3-2.6
		c5.3-3,9.2-8.6,10.5-16.1c2.1-12.4-5.9-23.7-18.5-25.8c-13.1-2.2-22.3,6.4-24,16.1c-0.4,2.6,0,5.3,0.5,6.5
		c-1.2-1.2-2.4-2.4-3.5-3.5l-14.9-14.6L2437.9,310.8z M2470.5,377.4c-5.9-1-10.3-6.3-9.2-12.8c1.1-6.4,7-10,12.9-9
		c5.8,1,10.3,6.4,9.2,12.8C2482.4,374.7,2476.3,378.3,2470.5,377.4L2470.5,377.4z M2443.8,370.5c-4.9-0.8-7.9-5.3-7.2-10
		c0.8-4.7,5.2-8,10-7.1c4.9,0.8,7.9,5.3,7.1,10C2452.9,368.1,2448.7,371.3,2443.8,370.5L2443.8,370.5z M2441.5,379.9
		c6.4,1.1,11.1-2.2,13.6-5.3c1.5,7,7.1,11.3,13.9,12.5c11.2,1.8,21-5.5,23-17.3c2-11.8-5-21.9-16.1-23.8c-6.9-1.2-13.6,1.2-17.2,7.2
		c-1.3-3.7-4.8-8.2-11.2-9.3c-8.2-1.4-16.9,4-18.8,15.3C2426.7,370.6,2433.5,378.5,2441.5,379.9L2441.5,379.9z M2443.9,398.8
		c8.6,1.4,11.8,8.8,10.8,14.9c-1.1,6.5-7.2,11.5-14.9,10.2c-7.2-1.2-11.9-7.6-10.7-14.8C2430.3,402,2436.6,397.5,2443.9,398.8
		L2443.9,398.8z M2482.7,418.1l-21.5-20.7c-3.7-3.5-8.3-6.9-14.9-8c-4.6-0.8-10.5-0.4-15.3,2.5c-5.3,3-9.2,8.7-10.5,16.1
		c-2.1,12.4,5.9,23.7,18.5,25.8c13.1,2.2,22.3-6.3,24-16.1c0.4-2.6,0-5.4-0.5-6.5c1.2,1.1,2.3,2.3,3.5,3.5l14.9,14.6L2482.7,418.1z
		 M2473.9,470.8l1.6-9.7l-61-10.2l-3.6,21.3l8.2,1.4l1.9-11.6L2473.9,470.8z M2435,514.6c-8.4-1-12.6,4.9-13.5,10.6
		c-1.2,7,2.2,13.5,9.6,14.8c6.5,0.9,9.7-3.2,12.4-8.8c3.2-6.8,5.7-9.5,10.3-8.9c4.2,0.6,7.2,4.5,6.4,9.2c-0.7,4.1-3.9,7.9-9.6,7.2
		l-0.9,5.6c8.6,1.4,14-5.3,15.2-11.9c1.3-7.8-3.2-14.8-10.8-15.8c-8.8-1.2-11.6,5.1-14.2,10.7c-2.3,4.7-4.4,7.4-8.3,6.9
		c-3.6-0.5-6.2-3.7-5.5-8.2c0.7-4.1,3.6-6.6,8-5.9L2435,514.6z M2458.9,560.5l0.9-5.6l-41-6.9l-0.9,5.6L2458.9,560.5z M2410.3,552.3
		l0.9-5.6l-7.9-1.3l-0.9,5.6L2410.3,552.3z M2416,564.6l-0.9,5.6l23.2,3.9c8.5,1.4,12.8,7.2,11.5,15.7c-1.5,9.2-8.1,12.2-16.9,10.7
		l-22.2-3.7l-0.9,5.6l23.3,3.9c10,1.7,19.4-1.4,21.8-14.2c1.3-7.3-1-13.4-5.9-16.6l7.3,1.2l0.9-5.3L2416,564.6z M2427.8,620.1
		c9.4,1.6,15.2,9.8,13.7,19.1c-0.8,4.6-3.2,8.4-6.6,10.8c-3.5,2.5-7.9,3.5-12.5,2.8c-4.7-0.8-8.5-3.2-11-6.6
		c-2.5-3.5-3.6-7.8-2.9-12.4C2410.4,622.7,2420.1,618.7,2427.8,620.1L2427.8,620.1z M2457.6,664l0.9-5.6l-15.6-2.6l-8.4-1.4
		c4.6-1.2,10.8-6.2,12.4-15.3c2.1-12.8-6.5-22.7-18-24.7c-10.6-1.8-23,3.6-25.3,17.4c-1.3,7.9,1.4,14.4,6.8,18.8l-8.5-1.4l-0.9,5.3
		L2457.6,664z M2411,702.8c-7.4-1.8-12.8-9.4-11.3-18.3c1.2-8.5,9.4-14.3,16.6-13.5L2411,702.8z M2421.7,666.3
		c-6.4-1.7-13.2-0.5-18.6,3.5c-4.4,3.3-7.3,8.3-8.3,14.1c-2.1,12.3,6.1,23.2,18.1,25.2c10.2,1.7,22.8-3.8,25.2-18.1
		c0.7-4.2,0.2-8.4-1.4-12.2c-1.6-3.9-4.5-7.3-8.6-10l-1,5.9c4.9,3.6,7.2,9.2,6.1,15.5c-1.1,7-7.5,14.9-17.9,13.5L2421.7,666.3z
		 M2405.2,755c-9.2-1.5-15.2-9.7-13.7-19.2c0.8-4.6,3.2-8.4,6.7-10.8c3.4-2.5,7.7-3.6,12.3-2.8c4.6,0.6,8.5,3.1,11.1,6.6
		c2.5,3.4,3.6,7.9,2.9,12.5C2422.6,752,2413.5,756.3,2405.2,755L2405.2,755z M2375.7,711l-0.9,5.6l15,2.5l8.7,1.5
		c-4.6,1.1-10.8,6.2-12.3,15.2c-2.1,12.3,5.8,22.7,18.1,24.7c11.5,1.9,23.1-4.4,25.3-17.6c1.4-8.5-1.8-14.8-6.8-18.6l8.5,1.4
		l0.9-5.4L2375.7,711z"/>
	<path class="st14" d="M3950.9,659.7l-0.1,0.5c-2.3,10.8,5.2,15.4,12,15.4c10.4,0,17.1-6.7,18.9-15.2l0-0.2
		c2.2-10.3-5.5-13.4-10.9-15.4c-3.4-1.2-8.3-3-7.1-8.3c0.7-3.4,4-7.5,9.1-7.5c2.8,0,6.6,1.7,5.8,7.8h6.4l0-0.2
		c1.6-7.7-3.3-13.4-10.7-13.4c-9.2,0-15.6,6.8-17.1,13.8c-2,9.4,5.5,12.1,10.2,13.8c3.4,1.5,9.3,3.1,7.8,9.9
		c-1.2,5.4-5.2,8.9-11.2,8.9c-2.3,0-8.6-0.7-6.7-10.2H3950.9z M3902.5,646.2c4.3-11.7,15.2-17,23-17c7.9,0,16.3,5.3,15.8,17H3902.5z
		 M3946.5,651.9c0.1-0.6,0.3-1.2,0.5-1.8c0.9-4.4,0.9-9.2-0.9-13.9c-2.2-6.2-8.6-12.6-19.5-12.7c-14.5,0.3-28.4,12.1-31.4,26.2
		c-3.1,14.7,6.5,26,20.4,26c11.5,0,22.6-7.5,28.2-17.4h-6.7c-3.6,6.2-11.2,11.6-20.3,11.7c-9.7,0-17-8.3-15.4-18H3946.5z
		 M3865.4,674.4h6.4l6.2-29.1c0.9-4,2.9-7.5,5.6-10.3c3.1-2.9,7.2-4.6,11.8-4.9l1.4-6.7c-5.5,0.4-11.3,1.5-15.8,8.5h-0.2l1.5-7.2
		h-6.4L3865.4,674.4z M3859.1,618.6h6.4l2.4-11.4h-6.4L3859.1,618.6z M3847.2,674.4h6.4l10.6-49.7h-6.4L3847.2,674.4z M3794.6,649.7
		c2.7-12.6,13.8-20.6,24.7-20.6c11.5,0,17.9,9.5,15.5,20.5c-2.5,11.6-13.5,20.3-24.2,20.3C3798.5,669.9,3792.3,660.8,3794.6,649.7
		 M3846.2,624.7h-6.4l-1.8,8.7h-0.2c-3.5-8.3-11.9-10-17.2-10c-16.3,0-29.4,12.7-32.3,26c-3,14.3,5.5,26.2,21.2,26.2
		c5.2,0,14.3-1.7,21.5-9.9h0.2l-1.9,8.7h6.4L3846.2,624.7z M3760.1,674.4h6.4l9.4-44h12.7l1.2-5.7H3777l0.1-0.4
		c1-4.7,2.8-12.5,15.4-12.5l1.2-5.9c-18.4,0.2-21.4,11.8-23.1,18.7h-7.7l-1.2,5.7h7.7L3760.1,674.4z M3731.3,674.4h6.4l9.4-44h12.7
		l1.2-5.7h-12.7l0.1-0.4c1-4.7,2.8-12.5,15.4-12.5l1.2-5.9c-18.4,0.2-21.4,11.8-23.1,18.7h-7.7l-1.2,5.7h7.7L3731.3,674.4z
		 M3675.2,649.7c2.7-12.6,13.8-20.6,24.7-20.6c11.4,0,17.9,9.5,15.5,20.5c-2.5,11.6-13.5,20.3-24.2,20.3
		C3679.1,669.9,3672.8,660.8,3675.2,649.7 M3726.8,624.7h-6.4l-1.8,8.7h-0.2c-3.5-8.3-11.9-10-17.2-10c-16.3,0-29.4,12.7-32.3,26
		c-3,14.3,5.5,26.2,21.1,26.2c5.2,0,14.3-1.7,21.5-9.9h0.2l-1.9,8.7h6.4L3726.8,624.7z"/>
	<path class="st14" d="M4159.4,550.7l-0.1,0.5c-2.3,10.8,5.2,15.4,12,15.4c10.4,0,17.1-6.7,18.9-15.2l0-0.2
		c2.2-10.3-5.5-13.5-10.9-15.4c-3.4-1.2-8.3-3-7.1-8.3c0.7-3.4,4-7.5,9.1-7.5c2.8,0,6.6,1.7,5.8,7.8h6.4l0-0.2
		c1.6-7.7-3.3-13.4-10.7-13.4c-9.2,0-15.6,6.8-17.1,13.8c-2,9.4,5.5,12.1,10.2,13.8c3.4,1.5,9.3,3.1,7.8,9.9
		c-1.2,5.4-5.2,8.9-11.2,8.9c-2.3,0-8.6-0.7-6.7-10.2H4159.4z M4111,537.1c4.3-11.7,15.2-17,23-17c7.9,0,16.3,5.3,15.8,17H4111z
		 M4155,542.8c0.1-0.6,0.3-1.2,0.5-1.8c0.9-4.3,0.9-9.2-0.9-13.9c-2.2-6.2-8.6-12.6-19.5-12.7c-14.5,0.3-28.4,12.1-31.4,26.2
		c-3.1,14.7,6.5,26,20.4,26c11.5,0,22.6-7.5,28.2-17.5h-6.7c-3.6,6.2-11.2,11.6-20.3,11.7c-9.7,0-17-8.3-15.4-18H4155z
		 M4047.9,540.7c2.7-12.6,13.8-20.6,24.7-20.6c11.5,0,17.9,9.5,15.5,20.5c-2.5,11.6-13.5,20.3-24.2,20.3
		C4051.8,560.8,4045.5,551.7,4047.9,540.7 M4103.2,498.1h-6.4l-5.5,26.1h-0.2c-3.7-7.8-11.8-9.8-17.3-9.8c-16.3,0-29.4,12.7-32.3,26
		c-3,14.3,5.5,26.2,21.2,26.2c5.3,0,14.5-2,21.5-9.9h0.2l-1.8,8.7h6.4L4103.2,498.1z M3977.6,550.7l-0.1,0.5
		c-2.3,10.8,5.2,15.4,12,15.4c10.5,0,17.1-6.7,18.9-15.2l0-0.2c2.2-10.3-5.5-13.5-10.9-15.4c-3.4-1.2-8.3-3-7.1-8.3
		c0.7-3.4,4-7.5,9.1-7.5c2.8,0,6.6,1.7,5.8,7.8h6.4l0-0.2c1.6-7.7-3.3-13.4-10.7-13.4c-9.2,0-15.6,6.8-17.1,13.8
		c-2,9.4,5.5,12.1,10.2,13.8c3.4,1.5,9.2,3.1,7.8,9.9c-1.1,5.4-5.2,8.9-11.2,8.9c-2.3,0-8.6-0.7-6.7-10.2H3977.6z M3971.9,509.6h6.4
		l2.4-11.4h-6.4L3971.9,509.6z M3960,565.4h6.4l10.6-49.7h-6.4L3960,565.4z M3907.4,540.7c2.7-12.6,13.8-20.6,24.7-20.6
		c11.5,0,17.9,9.5,15.5,20.5c-2.5,11.6-13.5,20.3-24.2,20.3C3911.3,560.8,3905.1,551.7,3907.4,540.7 M3959,515.7h-6.4l-1.9,8.7h-0.2
		c-3.5-8.3-11.9-10-17.2-10c-16.3,0-29.4,12.7-32.2,26c-3,14.3,5.5,26.2,21.1,26.2c5.2,0,14.3-1.7,21.5-9.9h0.2l-1.8,8.7h6.4
		L3959,515.7z M3884.5,550.7c-2.8,3.8-9.3,10.1-19.7,10.1c-11.9,0-18.6-9.3-16.2-20.5c2.8-13,15.1-20.3,24.9-20.3
		c6.3,0,12.9,3,15.3,10.6h7c-2.3-11.9-12.5-16.3-21.3-16.3c-14.8,0-29.2,11.8-32.3,26.2c-2.7,12.9,4.5,24.3,17.9,25.7l-5,6.7
		l2.9,1.9c0.8-0.7,1.9-1.7,4-1.7h0.5c2.2,0.2,3.5,1.7,2.9,4.3l-0.1,0.4c-0.7,2.4-2.7,4.4-5.1,4.4h-0.3c-1.9-0.2-3.2-1.5-3.1-3.8
		l-3.9,0.2c-0.2,4.8,2.7,6.7,6.1,7h0.5c3.9,0,8.1-3,9.4-7.6l0-0.2c0.9-4.1-1.1-7.4-4.9-7.6h-0.8c-0.7,0-1.3,0.1-2.3,0.4l2.9-4
		c14.6-0.2,23.1-9.6,27.5-15.7H3884.5z M3783.6,565.4h6.4l5.9-27.8c1.3-6.2,4.3-10.6,7.4-13.2c4.2-3.4,8.9-4.3,11.7-4.3
		c2.8,0,7.2,0.9,9.9,4.3c2.2,2.6,3.2,7.2,1.8,13.6l-5.8,27.4h6.4l5.8-27.4c1.7-8.2,0.5-13.9-2.4-17.6c-3.6-4.5-8.3-6.1-14.4-6.1
		c-8.5,0-14.3,4.6-16.9,7.6h-0.2l1.4-6.4h-6.4L3783.6,565.4z M3731.1,540.7c2.7-12.6,13.8-20.6,24.7-20.6c11.5,0,17.9,9.5,15.5,20.5
		c-2.5,11.6-13.5,20.3-24.2,20.3C3735,560.8,3728.7,551.7,3731.1,540.7 M3782.7,515.7h-6.4l-1.9,8.7h-0.2c-3.5-8.3-11.9-10-17.2-10
		c-16.3,0-29.4,12.7-32.3,26c-3,14.3,5.5,26.2,21.2,26.2c5.2,0,14.3-1.7,21.5-9.9h0.2l-1.9,8.7h6.4L3782.7,515.7z M3694.2,565.4h6.4
		l6.2-29.1c0.9-4,2.9-7.5,5.6-10.3c3.1-2.9,7.2-4.6,11.8-4.9l1.4-6.7c-5.4,0.4-11.3,1.5-15.8,8.5h-0.2l1.5-7.2h-6.4L3694.2,565.4z
		 M3669.2,565.4h6.4l9.4-44h12.7l1.2-5.7h-12.7l0.1-0.4c1-4.7,2.8-12.5,15.4-12.5l1.3-5.9c-18.4,0.2-21.4,11.8-23.1,18.7h-7.7
		l-1.2,5.7h7.7L3669.2,565.4z"/>
	<path class="st14" d="M3931.5,456.3h6.4l9.4-44h11.9l1.2-5.7h-11.9l3.7-17.5h-6.4l-3.7,17.5h-10.4l-1.2,5.7h10.4L3931.5,456.3z
		 M3924.3,406.6h-6.4l-5.6,26.3c-1.8,8.7-4.8,12-8.4,14.9c-3.9,3.2-7.9,4-11.4,4c-3.5,0-7.9-0.8-10.5-4.7c-1.6-2.7-2.1-6.8-0.8-13.1
		l5.8-27.4h-6.4l-5.8,27.4c-1.1,5.3-1.7,11.6,1,16c1.6,2.7,5.7,7.4,15.5,7.4c9.3,0,15.2-5.2,17.8-8.9h0.2l-1.6,7.7h6L3924.3,406.6z
		 M3845.4,456.3h6.4l9.4-44h11.9l1.2-5.7h-11.9l3.7-17.5h-6.4l-3.7,17.5h-10.5l-1.2,5.7h10.5L3845.4,456.3z M3833.3,400.5h6.4
		l2.4-11.4h-6.4L3833.3,400.5z M3821.4,456.3h6.4l10.6-49.7h-6.4L3821.4,456.3z M3796.4,456.3h6.4l9.4-44h11.9l1.2-5.7h-11.9
		l3.7-17.5h-6.4l-3.7,17.5h-10.5l-1.2,5.7h10.5L3796.4,456.3z M3754.8,441.6l-0.1,0.5c-2.3,10.8,5.2,15.4,12,15.4
		c10.5,0,17.1-6.7,18.9-15.2l0-0.2c2.2-10.3-5.5-13.5-10.9-15.4c-3.4-1.2-8.3-3-7.2-8.3c0.7-3.4,4-7.5,9.1-7.5
		c2.8,0,6.6,1.7,5.8,7.8h6.4l0-0.2c1.6-7.7-3.3-13.4-10.7-13.4c-9.2,0-15.6,6.8-17.1,13.8c-2,9.4,5.5,12.1,10.2,13.8
		c3.4,1.5,9.2,3.1,7.8,9.9c-1.1,5.4-5.2,8.9-11.2,8.9c-2.3,0-8.6-0.7-6.7-10.2H3754.8z M3699.9,456.3h6.4l5.9-27.8
		c1.3-6.2,4.3-10.6,7.4-13.2c4.2-3.4,8.9-4.3,11.7-4.3c2.8,0,7.2,0.9,9.9,4.3c2.2,2.6,3.2,7.2,1.8,13.6l-5.8,27.4h6.4l5.8-27.4
		c1.8-8.2,0.5-13.9-2.4-17.6c-3.6-4.5-8.3-6.1-14.4-6.1c-8.5,0-14.3,4.6-16.9,7.6h-0.2l1.3-6.4h-6.4L3699.9,456.3z M3693.6,400.5
		h6.4l2.4-11.4h-6.4L3693.6,400.5z M3681.7,456.3h6.4l10.6-49.7h-6.4L3681.7,456.3z"/>
	<path class="st14" d="M3672.1,778.9c0,0-41.1-99.5-41.1-247.1c0-147.6,41.1-247.6,41.1-247.6h-16.4c0,0-49.3,114.3-49.3,247.6
		c0,133.4,48,247.1,48,247.1H3672.1z"/>
	<g>
		<defs>
			<path id="SVGID_25_" d="M898.1-1153.7L812.3-670h155.6l85.8-483.7H898.1z M948.2-1335.2c-18.2,17.9-27.3,39.7-27.3,65.4
				c0,17.5,5.9,32.1,17.6,43.8c11.7,11.8,27.1,17.6,46,17.6c12.1,0,23.6-2.4,34.6-7.4c11-4.9,20.8-11.7,29.5-20.5
				c8.7-8.7,15.5-18.4,20.5-29c4.9-10.6,7.4-21.6,7.4-33c0-18.2-6.1-33.4-18.2-45.5c-12.1-12.1-27.6-18.2-46.6-18.2
				C987.6-1361.9,966.4-1353,948.2-1335.2"/>
		</defs>
		<clipPath id="SVGID_26_">
			<use xlink:href="#SVGID_25_"  style="display:none;overflow:visible;"/>
		</clipPath>
		
			<linearGradient id="SVGID_27_" gradientUnits="userSpaceOnUse" x1="4304.2427" y1="831.0187" x2="4320.0435" y2="831.0187" gradientTransform="matrix(0 27.9694 27.9694 0 -22298.6504 -121592.5391)">
			<stop  offset="0" style="stop-color:#F7B93E"/>
			<stop  offset="1" style="stop-color:#EB8023"/>
		</linearGradient>
		<rect x="812.3" y="-1361.9" class="st15" width="264.3" height="692"/>
	</g>
</g>
<g>
	<g>
		<g>
			<path class="st16" d="M230,572.8l-90.9,195.7H16.5L350.6,82.3H495l84.2,686.1H459l-19.5-195.7H230z M433.3,481.1l-18.8-170.5
				c-3.2-36.8-7.2-89.8-10.4-130.8h-2.2c-17.5,41.5-35.1,90.1-54.1,130.3l-81,171.1H433.3z"/>
			<path class="st16" d="M588.5,768.4L722.7,45.7h115.4L703.8,768.4H588.5z"/>
			<path class="st16" d="M1268.5,272.9l-62.9,341.9c-11.2,59.3-18.3,110.8-23.9,153.7H1079l10.5-86.4l-2-0.3
				c-46.5,64.6-107.2,97.9-167.7,97.9c-70.3,0-125.3-38.6-125.3-140.8c0-25.7,3.1-54.2,9.5-87.8l51.6-278.2h115.3l-49.9,270.2
				c-4.6,25-7.7,49.1-7.7,68.7c0,40.4,16.1,70.2,61.3,70.2c53.4,0,115.3-65.2,134.4-168.5l44.3-240.6H1268.5z"/>
			<path class="st16" d="M1243.5,768.4l61.8-341.9c11.1-59.3,18.1-110.8,23.8-153.7h99.9l-10.4,86.2h1.9
				c44.6-66.3,104.2-97.4,167-97.4c75.2,0,109.6,49.1,113.4,101.3c43.3-67.5,104.2-100.6,171-101.3c66.1,0,117.3,43.6,117.3,131.7
				c0,21.8-3.5,58.3-8.1,84.8l-53,290.3h-112l50.1-277.3c3.5-19.4,6.8-42.4,6.8-62.2c0-42.6-16.7-71-58.8-71
				c-53.1,0-111,68-129.8,172.8l-43.2,237.6h-111.5l51.5-280.6c3.8-21,6.4-40.1,6.4-58.3c0-37.4-10.9-71.5-57.6-71.5
				c-53.2,0-114.8,74.9-132.6,175.8l-41.8,234.7H1243.5z"/>
			<path class="st16" d="M1990.9,768.4l62.6-341.9c11.5-59.3,18.5-110.8,24.7-153.7h102.4l-10.6,89h2
				c44.4-66.8,106.2-100.2,173.1-100.2c69.1,0,122.8,42.6,122.8,136.5c0,22.2-4,56.7-8.4,81.8l-53.4,288.5h-115.3l51.3-279.6
				c3.2-18.2,5.9-39.6,5.9-59c0-41.5-14.7-71.5-60.3-71.5c-52.1,0-119.2,65.5-140,180.7l-41.7,229.4H1990.9z"/>
		</g>
	</g>
</g>
<g id="layer1">
	
		<linearGradient id="rect3761-0_1_" gradientUnits="userSpaceOnUse" x1="72539.6563" y1="-31215.4707" x2="72651.625" y2="-31215.4707" gradientTransform="matrix(-2.4275 -0.7618 0.6278 -2.0005 199242.8906 -6856.2852)">
		<stop  offset="0" style="stop-color:#000000"/>
		<stop  offset="0.7685" style="stop-color:#383838"/>
		<stop  offset="0.9143" style="stop-color:#262626"/>
		<stop  offset="1" style="stop-color:#000000"/>
	</linearGradient>
	<path id="rect3761-0" class="st17" d="M3577,253.4l-47.9,102.5c-1.6,9.7-17.5,29.5-39,28.4c-66.2-2.3-116.7-18.1-160-40.1
		c-17.3-8.8-35.9-19.3-49.9-32.6c-10.8-12.6-11.5-13.5-7.4-32.8l48.8-105.6L3577,253.4L3577,253.4z"/>
	
		<linearGradient id="rect2830-2_1_" gradientUnits="userSpaceOnUse" x1="72478.2734" y1="-31019.7754" x2="72710.7891" y2="-31019.7754" gradientTransform="matrix(-2.4275 -0.7618 0.6278 -2.0005 199141.5313 -6513.8413)">
		<stop  offset="0" style="stop-color:#28292B"/>
		<stop  offset="1" style="stop-color:#1A2334"/>
	</linearGradient>
	<path id="rect2830-2" class="st18" d="M3416.4,307.2l-250-174.3l301.8,44.5l260.1,136.4C3728.4,313.7,3416.4,307.2,3416.4,307.2z"
		/>
	<path id="rect3614-4" class="st19" d="M3591.1,385.9c-10.8,30.4-10.6,56.8-17.4,80c-10.6,10.1-37.9-3.4-40.6-16.1
		c-2.7-8,25.4-43,43-69L3591.1,385.9L3591.1,385.9z"/>
	<path id="path3605-7-8" class="st20" d="M3425,210.4L3425,210.4L3425,210.4L3425,210.4L3425,210.4l-0.4,2.9
		c8.1,8,24,12.9,33.8,10.5c0.3-0.6,1.3-2.6,1-3.1C3457.1,216,3433.5,218,3425,210.4L3425,210.4z"/>
	<path id="rect3617-6" class="st19" d="M3448.7,217.6c149,67.1,165.8,84.1,168.1,93.8c1.9,9.5-9,28.9-12,43.4l-10-3.2
		c2.5-15,15.9-36.6,11.2-43.8c-15.7-23.5-126.4-68.3-166.5-90.8L3448.7,217.6L3448.7,217.6z"/>
	
		<linearGradient id="rect3612-5_1_" gradientUnits="userSpaceOnUse" x1="59791.832" y1="-41156.7266" x2="59798.9297" y2="-41156.7266" gradientTransform="matrix(-2.5244 -1.1283 1.0259 -1.8497 196763.3438 -8289.0371)">
		<stop  offset="0" style="stop-color:#FFFFFF"/>
		<stop  offset="1" style="stop-color:#919191"/>
	</linearGradient>
	<polygon id="rect3612-5" class="st21" points="3590.9,389.9 3574.2,382.4 3586.4,360.5 3603.1,367.9 	"/>
	<path id="rect3723-0" class="st22" d="M3428.1,207.6c2.3,1.4,0.6,3.1-3.2,0.7c-30.8-16-60.3-33.7-94-45.5c-6.3-2.1-2.5-3.8-0.9-2.9
		C3368.9,171.5,3399.3,189.1,3428.1,207.6L3428.1,207.6z"/>
	<path id="rect3723-1-9" class="st22" d="M3425.7,213.3c3.1,0.3,2.7,3-2.4,2.3c-39.4-1.5-78.9-5.4-118.1-1.2c-7.2,0.9-5-2.7-2.9-2.6
		C3346,204.9,3386.3,208.2,3425.7,213.3L3425.7,213.3z"/>
	<path id="rect3723-1-2-0" class="st22" d="M3449,215.2c-3.1-0.3-2.2,1.7,3,2.1c40.2,5.8,80,9.9,121.4,19.9c7.6,1.9,4.6-1.1,2.4-1.4
		C3529.2,223,3488.4,218.4,3449,215.2L3449,215.2z"/>
	<path id="path3610-0" class="st19" d="M3582.8,356c2-6.2,9.7-9.3,17.2-7s12.1,9.3,10.1,15.6c0,0,0,0,0,0c-2,6.2-9.7,9.3-17.2,7
		C3585.4,369.2,3580.9,362.2,3582.8,356C3582.8,356,3582.8,356,3582.8,356z"/>
	
		<linearGradient id="path3605-6_1_" gradientUnits="userSpaceOnUse" x1="90842.2188" y1="-46753.832" x2="90859.875" y2="-46753.832" gradientTransform="matrix(-1.9445 -0.6102 0.4385 -1.3973 200603.0156 -9676.2617)">
		<stop  offset="0" style="stop-color:#000000"/>
		<stop  offset="1" style="stop-color:#797979"/>
	</linearGradient>
	<path id="path3605-6" class="st23" d="M3425,210.4c1-3.2,9.5-3.4,19-0.4c9.5,3,16.4,8,15.3,11.2
		C3450,223.1,3431.2,217.3,3425,210.4L3425,210.4z"/>
	<path id="rect3723-8-1" d="M3420.6,208.3c2.3,1.4,0.6,3.1-3.2,0.7c-30.8-16-60.3-33.7-94-45.5c-6.3-2.1-2.5-3.8-0.9-2.9
		C3361.3,172.2,3391.7,189.8,3420.6,208.3L3420.6,208.3z"/>
	<path id="rect3723-8-8-3" d="M3430.3,217.3c3.1,0.3,2.8,3-2.4,2.3c-39.9-1.5-79.8-5.4-119.4-1c-7.3,0.9-5.1-2.7-2.9-2.6
		C3349.8,208.9,3390.5,212.2,3430.3,217.3L3430.3,217.3z"/>
	<path id="rect3723-8-8-1-8" d="M3582.7,237.1c3.1,0.7,2.5,2.7-2.6,1.5c-39.2-6.5-78.3-14.9-117.7-16.8c-7.3-0.3-4.8-2.8-2.7-2.4
		C3503.7,219.8,3543.7,227.8,3582.7,237.1L3582.7,237.1z"/>
</g>
</svg>
